<svg xmlns="http://www.w3.org/2000/svg" viewBox="0 0 1440 320">
    <path fill="#0099ff" fill-opacity="1.5" d="M0,32L20,32C40,32,80,32,120,69.3C160,107,200,181,240,186.7C280,192,320,128,360,117.3C400,107,440,149,480,170.7C520,192,560,192,600,197.3C640,203,680,213,720,181.3C760,149,800,75,840,48C880,21,920,43,960,42.7C1000,43,1040,21,1080,26.7C1120,32,1160,64,1200,80C1240,96,1280,96,1320,101.3C1360,107,1400,117,1420,122.7L1440,128L1440,320L1420,320C1400,320,1360,320,1320,320C1280,320,1240,320,1200,320C1160,320,1120,320,1080,320C1040,320,1000,320,960,320C920,320,880,320,840,320C800,320,760,320,720,320C680,320,640,320,600,320C560,320,520,320,480,320C440,320,400,320,360,320C320,320,280,320,240,320C200,320,160,320,120,320C80,320,40,320,20,320L0,320Z"></path>
</svg>